HIERARCHY
ROOT Hips
{
	OFFSET 0.00 0.00 0.00
	CHANNELS 6 Xposition Yposition Zposition Xrotation Yrotation Zrotation
	JOINT RightUpLeg
	{
		OFFSET -4.47808 0.00000 0.00000
		CHANNELS 3 Xrotation Yrotation Zrotation
		JOINT RightLeg
		{
			OFFSET 0.00000 -16.40577 0.00000
			CHANNELS 3 Xrotation Yrotation Zrotation
			JOINT RightFoot
			{
				OFFSET 0.00000 -14.64414 0.00000
				CHANNELS 3 Xrotation Yrotation Zrotation
				JOINT RightToeBase
				{
					OFFSET 0.00000 -1.50274 5.60831
					CHANNELS 3 Xrotation Yrotation Zrotation
					End Site
					{
						OFFSET 0.00000 0.00000 2.95275
					}
				}
			}
		}
	}
	JOINT LeftUpLeg
	{
		OFFSET 4.47808 0.00000 0.00000
		CHANNELS 3 Xrotation Yrotation Zrotation
		JOINT LeftLeg
		{
			OFFSET 0.00000 -16.40577 0.00000
			CHANNELS 3 Xrotation Yrotation Zrotation
			JOINT LeftFoot
			{
				OFFSET 0.00000 -14.64414 0.00000
				CHANNELS 3 Xrotation Yrotation Zrotation
				JOINT LeftToeBase
				{
					OFFSET 0.00000 -1.50274 5.60831
					CHANNELS 3 Xrotation Yrotation Zrotation
					End Site
					{
						OFFSET 0.00000 0.00000 2.95275
					}
				}
			}
		}
	}
	JOINT Spine
	{
		OFFSET 0.00000 6.06821 0.00000
		CHANNELS 3 Xrotation Yrotation Zrotation
		JOINT RightShoulder
		{
			OFFSET 0.00000 10.01392 0.00000
			CHANNELS 3 Xrotation Yrotation Zrotation
			JOINT RightArm
			{
				OFFSET -7.19022 0.00000 0.00000
				CHANNELS 3 Xrotation Yrotation Zrotation
				JOINT RightForeArm
				{
					OFFSET -10.17747 0.00000 0.00000
					CHANNELS 3 Yrotation Zrotation Xrotation
					JOINT RightHand
					{
						OFFSET -8.39211 0.00000 0.00000
						CHANNELS 3 Xrotation Yrotation Zrotation
						End Site
						{
							OFFSET -3.93700 0.00000 0.00000
						}
						JOINT RightHandThumb1
						{
							OFFSET 0.00000 0.00000 0.00000
							CHANNELS 3 Xrotation Zrotation Yrotation
							End Site
							{
								OFFSET 0.00000 0.00000 3.93700
							}
						}
					}
				}
			}
		}
		JOINT LeftShoulder
		{
			OFFSET 0.00000 10.01392 0.00000
			CHANNELS 3 Xrotation Yrotation Zrotation
			JOINT LeftArm
			{
				OFFSET 7.19022 0.00000 0.00000
				CHANNELS 3 Xrotation Yrotation Zrotation
				JOINT LeftForeArm
				{
					OFFSET 10.17747 0.00000 0.00000
					CHANNELS 3 Yrotation Zrotation Xrotation
					JOINT LeftHand
					{
						OFFSET 8.39211 0.00000 0.00000
						CHANNELS 3 Xrotation Yrotation Zrotation
						End Site
						{
							OFFSET 3.93700 0.00000 0.00000
						}
						JOINT LeftHandThumb1
						{
							OFFSET 0.00000 0.00000 0.00000
							CHANNELS 3 Xrotation Zrotation Yrotation
							End Site
							{
								OFFSET 0.00000 0.00000 3.93700
							}
						}
					}
				}
			}
		}
		JOINT Head
		{
			OFFSET 0.00000 15.77748 0.00000
			CHANNELS 3 Xrotation Yrotation Zrotation
			End Site
			{
				OFFSET 0.00000 4.52755 0.00000
			}
		}
	}
}
MOTION
Frames: 19
Frame Time: 0.008333
 -3.3118 33.1060 -1.2432 8.4167 -0.3251 3.0593 0.0208 -4.2223 -0.7941 -0.9534 -0.0000 0.0000 -12.2628 -6.4186 -3.7264 3.9482 -0.0000 0.0000 -0.8754 -0.2826 -1.1378 1.6962 -0.0000 -0.0000 -11.3330 8.2198 -9.7295 9.4582 0.0000 -0.0000 -11.2935 -3.6489 -3.5385 -0.6147 -20.0790 -29.9386 -32.4617 2.0588 30.5741 10.1704 -0.0000 12.6112 -1.5245 5.8094 14.7313 32.8623 0.0000 -24.3270 -10.6748 18.7969 32.8845 -33.8356 -1.7084 -27.1730 -4.0948 0.0000 20.8947 0.7875 10.9018 -4.1571 33.1476 -0.0000 26.2537 -0.4172 1.1958 3.3260
 -3.3117 33.1060 -1.2428 8.4239 -0.3305 3.0547 0.0160 -4.2084 -0.7899 -0.9562 -0.0000 -0.0000 -12.2547 -6.4323 -3.7212 3.9538 -0.0000 0.0000 -0.8793 -0.2754 -1.1364 1.7013 0.0000 -0.0000 -11.3513 8.2246 -9.7153 9.5001 -0.0000 0.0000 -11.2914 -3.6509 -3.5293 -0.6217 -20.0745 -29.9482 -32.4662 2.0490 30.5812 10.1783 -0.0000 12.6335 -1.5270 5.8238 14.7203 32.8623 0.0000 -24.3270 -10.6661 18.8107 32.8723 -33.8549 -1.7001 -27.1637 -4.1087 0.0000 20.9147 0.7967 10.9229 -4.1972 33.1476 -0.0000 26.2537 -0.4311 1.2448 3.3339
 -3.3115 33.1055 -1.2419 8.4312 -0.3307 3.0537 0.0125 -4.2063 -0.7900 -0.9613 0.0000 -0.0000 -12.2643 -6.4295 -3.7175 3.9904 -0.0000 0.0000 -0.8809 -0.2650 -1.1331 1.6840 -0.0000 0.0000 -11.3356 8.2082 -9.7413 9.4708 -0.0000 0.0000 -11.2851 -3.6420 -3.5376 -0.6803 -20.0473 -29.9564 -32.3980 2.0377 30.5679 10.1647 -0.0000 12.6661 -1.5543 5.9133 14.7559 32.8623 0.0000 -24.3270 -10.6734 18.8202 32.8876 -33.8423 -1.7056 -27.1818 -4.1301 0.0000 20.8733 0.7867 10.9202 -4.1459 33.1476 -0.0000 26.2537 -0.4559 1.2532 3.3571
 -3.3107 33.1058 -1.2416 8.4335 -0.3377 3.0537 0.0109 -4.1973 -0.7913 -0.9629 -0.0000 -0.0000 -12.2594 -6.4230 -3.7304 3.9894 0.0000 0.0000 -0.8814 -0.2547 -1.1345 1.6843 0.0000 0.0000 -11.3320 8.2021 -9.7224 9.4219 -0.0000 -0.0000 -11.2814 -3.6302 -3.5348 -0.6692 -20.0530 -29.9631 -32.4151 2.0213 30.5793 10.1670 -0.0000 12.6784 -1.5530 5.9133 14.7437 32.8623 0.0000 -24.3270 -10.6416 18.8353 32.8731 -33.8824 -1.6911 -27.1824 -4.1481 0.0000 20.8880 0.7858 10.9149 -4.1428 33.1476 -0.0000 26.2537 -0.4558 1.2533 3.3532
 -3.3099 33.1056 -1.2411 8.4402 -0.3383 3.0583 0.0061 -4.1940 -0.7934 -0.9654 0.0000 0.0000 -12.2612 -6.4494 -3.7376 3.9720 -0.0000 -0.0000 -0.8858 -0.2406 -1.1395 1.6829 -0.0000 -0.0000 -11.3327 8.1925 -9.7243 9.4305 0.0000 0.0000 -11.2745 -3.6279 -3.5489 -0.6586 -20.0610 -29.9382 -32.4158 2.0277 30.5645 10.1737 -0.0000 12.6544 -1.5564 5.9205 14.7576 32.8623 0.0000 -24.3270 -10.6446 18.8555 32.8843 -33.8806 -1.7004 -27.1961 -4.1655 0.0000 20.8807 0.7830 10.9211 -4.1260 33.1476 -0.0000 26.2537 -0.4754 1.2454 3.3649
 -3.3103 33.1053 -1.2416 8.4505 -0.3360 3.0546 -0.0018 -4.1922 -0.7894 -0.9720 -0.0000 0.0000 -12.2606 -6.4520 -3.7414 4.0443 -0.0000 0.0000 -0.8974 -0.2400 -1.1338 1.6850 -0.0000 -0.0000 -11.3396 8.1851 -9.7312 9.4386 0.0000 0.0000 -11.2721 -3.6202 -3.5516 -0.6754 -20.0624 -29.9371 -32.3873 2.0308 30.5641 10.1749 -0.0000 12.6251 -1.5600 5.9363 14.7529 32.8623 0.0000 -24.3270 -10.6648 18.8562 32.8992 -33.8748 -1.7056 -27.2159 -4.1724 0.0000 20.8668 0.7776 10.9189 -4.0984 33.1476 -0.0000 26.2537 -0.4964 1.2107 3.3626
 -3.3089 33.1051 -1.2410 8.4570 -0.3380 3.0586 -0.0036 -4.1893 -0.7950 -0.9795 0.0000 0.0000 -12.2569 -6.4519 -3.7308 4.0197 0.0000 -0.0000 -0.9011 -0.2292 -1.1408 1.6843 -0.0000 -0.0000 -11.3411 8.1845 -9.7267 9.4777 0.0000 -0.0000 -11.2718 -3.6107 -3.5548 -0.6777 -20.0704 -29.9387 -32.3918 2.0305 30.5701 10.1789 -0.0000 12.6350 -1.5568 5.9289 14.7409 32.8623 0.0000 -24.3270 -10.6569 18.8602 32.8952 -33.8937 -1.6920 -27.2177 -4.1897 0.0000 20.8846 0.7778 10.9152 -4.1008 33.1476 -0.0000 26.2537 -0.4962 1.2139 3.3557
 -3.3084 33.1051 -1.2416 8.4659 -0.3313 3.0583 -0.0139 -4.2140 -0.7948 -0.9777 -0.0000 -0.0000 -12.2538 -6.4195 -3.7500 3.9719 0.0000 -0.0000 -0.9107 -0.2433 -1.1399 1.6801 0.0000 -0.0000 -11.3339 8.1892 -9.7462 9.4501 0.0000 0.0000 -11.2717 -3.6087 -3.5586 -0.6697 -20.0865 -29.9333 -32.3989 2.0354 30.5762 10.1900 -0.0000 12.6250 -1.5502 5.9025 14.7442 32.8623 0.0000 -24.3270 -10.6463 18.8648 32.8876 -33.9089 -1.6897 -27.2171 -4.2049 0.0000 20.8866 0.7751 10.9322 -4.0806 33.1476 -0.0000 26.2537 -0.4990 1.2170 3.3569
 -3.3069 33.1055 -1.2413 8.4734 -0.3309 3.0582 -0.0165 -4.2237 -0.7975 -0.9877 -0.0000 -0.0000 -12.2526 -6.4143 -3.7314 4.0179 -0.0000 0.0000 -0.9173 -0.2444 -1.1420 1.6783 0.0000 0.0000 -11.3310 8.1833 -9.7231 9.4204 -0.0000 -0.0000 -11.2742 -3.6066 -3.5502 -0.6779 -20.0919 -29.9505 -32.3989 2.0382 30.5937 10.1977 -0.0000 12.6230 -1.5448 5.8893 14.7263 32.8623 0.0000 -24.3270 -10.6314 18.8749 32.8687 -33.9154 -1.6884 -27.2126 -4.2252 0.0000 20.8654 0.7778 10.8944 -4.1088 33.1476 -0.0000 26.2537 -0.4921 1.2275 3.3404
 -3.3065 33.1054 -1.2412 8.4820 -0.3341 3.0542 -0.0253 -4.2255 -0.7935 -0.9869 -0.0000 0.0000 -12.2429 -6.4181 -3.7194 3.9080 0.0000 -0.0000 -0.9220 -0.2501 -1.1390 1.6718 -0.0000 -0.0000 -11.3383 8.1982 -9.7353 9.4638 0.0000 -0.0000 -11.2790 -3.6061 -3.5427 -0.6586 -20.0947 -29.9540 -32.4216 2.0239 30.6047 10.2175 -0.0000 12.6407 -1.5406 5.8737 14.7249 32.8623 0.0000 -24.3270 -10.6303 18.8827 32.8561 -33.9514 -1.6803 -27.2086 -4.2288 0.0000 20.9033 0.7769 10.8827 -4.1084 33.1476 -0.0000 26.2537 -0.4795 1.2467 3.3289
 -3.3060 33.1051 -1.2415 8.4932 -0.3395 3.0557 -0.0375 -4.2225 -0.7957 -0.9887 0.0000 -0.0000 -12.2446 -6.4140 -3.7278 3.9787 -0.0000 -0.0000 -0.9356 -0.2410 -1.1401 1.6785 0.0000 0.0000 -11.3424 8.1904 -9.7335 9.4598 -0.0000 0.0000 -11.2800 -3.5936 -3.5438 -0.6321 -20.1232 -29.9373 -32.4533 2.0443 30.6054 10.2151 -0.0000 12.6279 -1.5385 5.8616 14.7349 32.8623 0.0000 -24.3270 -10.6425 18.8862 32.8542 -33.9151 -1.7099 -27.2109 -4.2347 0.0000 20.8610 0.7723 10.9208 -4.0696 33.1476 -0.0000 26.2537 -0.4885 1.2191 3.3067
 -3.3053 33.1047 -1.2404 8.4966 -0.3435 3.0567 -0.0364 -4.2295 -0.7981 -0.9945 -0.0000 0.0000 -12.2502 -6.4155 -3.6986 3.9656 0.0000 0.0000 -0.9302 -0.2209 -1.1434 1.6661 0.0000 -0.0000 -11.3361 8.1803 -9.7372 9.4387 0.0000 -0.0000 -11.2795 -3.5898 -3.5470 -0.6123 -20.1369 -29.9281 -32.4836 2.0427 30.6140 10.2328 -0.0000 12.6171 -1.5354 5.7971 14.8617 32.8623 0.0000 -24.3270 -10.6196 18.9196 32.8487 -33.9582 -1.7271 -27.2197 -4.2297 0.0000 20.8676 0.7720 10.9360 -4.0630 33.1476 -0.0000 26.2537 -0.4681 1.2161 3.3170
 -3.3047 33.1046 -1.2396 8.4986 -0.3511 3.0581 -0.0384 -4.2206 -0.8005 -0.9926 -0.0000 0.0000 -12.2525 -6.4070 -3.7419 3.9842 -0.0000 0.0000 -0.9271 -0.2213 -1.1450 1.6629 0.0000 -0.0000 -11.3401 8.1814 -9.7336 9.4575 -0.0000 0.0000 -11.2808 -3.5861 -3.5487 -0.6189 -20.1218 -29.9265 -32.4616 2.0551 30.6123 10.2332 -0.0000 12.6140 -1.5282 5.8273 14.7228 32.8623 0.0000 -24.3270 -10.6194 18.9141 32.8496 -33.9703 -1.7111 -27.2104 -4.2225 0.0000 20.9298 0.7723 10.9624 -4.0548 33.1476 -0.0000 26.2537 -0.4477 1.2322 3.3133
 -3.3036 33.1042 -1.2387 8.5021 -0.3540 3.0588 -0.0342 -4.2077 -0.8022 -1.0062 -0.0000 0.0000 -12.2456 -6.4100 -3.7488 3.9747 -0.0000 0.0000 -0.9288 -0.2257 -1.1487 1.6639 0.0000 -0.0000 -11.3428 8.1861 -9.7297 9.4589 -0.0000 0.0000 -11.2817 -3.5862 -3.5447 -0.6118 -20.1138 -29.9286 -32.4633 2.0546 30.6127 10.2332 -0.0000 12.6021 -1.5348 5.8478 14.7337 32.8623 0.0000 -24.3270 -10.6516 18.9024 32.8557 -33.9443 -1.7180 -27.2106 -4.2085 0.0000 20.9385 0.7684 10.9466 -4.0402 33.1476 -0.0000 26.2537 -0.4331 1.2349 3.2954
 -3.3036 33.1041 -1.2382 8.5075 -0.3631 3.0576 -0.0448 -4.2083 -0.8016 -0.9961 -0.0000 -0.0000 -12.2541 -6.4159 -3.7332 3.9755 0.0000 -0.0000 -0.9307 -0.2231 -1.1498 1.6693 -0.0000 0.0000 -11.3608 8.1925 -9.7060 9.4919 0.0000 0.0000 -11.2842 -3.5813 -3.5426 -0.6266 -20.0921 -29.9367 -32.4573 2.0379 30.6207 10.2462 -0.0000 12.6257 -1.5337 5.8438 14.7335 32.8623 0.0000 -24.3270 -10.6559 18.9091 32.8623 -33.9534 -1.7164 -27.2165 -4.2164 0.0000 20.9422 0.7777 10.9373 -4.0920 33.1476 -0.0000 26.2537 -0.4159 1.2463 3.2926
 -3.3027 33.1035 -1.2364 8.5060 -0.3689 3.0595 -0.0351 -4.1999 -0.8045 -1.0098 0.0000 -0.0000 -12.2462 -6.4134 -3.7349 3.9580 -0.0000 0.0000 -0.9231 -0.2274 -1.1499 1.6577 0.0000 -0.0000 -11.3520 8.1968 -9.7218 9.4749 0.0000 0.0000 -11.2831 -3.5744 -3.5450 -0.6141 -20.0941 -29.9334 -32.4467 2.0518 30.6250 10.2434 -0.0000 12.5577 -1.5405 5.8254 14.8399 32.8623 0.0000 -24.3270 -10.6540 18.9051 32.8750 -33.9465 -1.7114 -27.2254 -4.2168 0.0000 20.9327 0.7771 10.9375 -4.0888 33.1476 -0.0000 26.2537 -0.3889 1.2603 3.2879
 -3.3014 33.1034 -1.2352 8.5079 -0.3759 3.0613 -0.0351 -4.1887 -0.8091 -1.0085 -0.0000 0.0000 -12.2525 -6.4188 -3.7155 4.0016 -0.0000 -0.0000 -0.9176 -0.2168 -1.1551 1.6487 0.0000 0.0000 -11.3495 8.2006 -9.7214 9.4668 -0.0000 -0.0000 -11.2848 -3.5709 -3.5443 -0.6101 -20.0899 -29.9326 -32.4723 2.0457 30.6301 10.2468 -0.0000 12.5811 -1.5402 5.8100 14.8750 32.8623 0.0000 -24.3270 -10.6594 18.9068 32.8852 -33.9513 -1.7009 -27.2309 -4.2248 0.0000 20.9486 0.7819 10.9327 -4.1159 33.1476 -0.0000 26.2537 -0.3673 1.2727 3.2855
 -3.3002 33.1035 -1.2347 8.5094 -0.3759 3.0599 -0.0334 -4.1917 -0.8104 -1.0150 0.0000 -0.0000 -12.2450 -6.4147 -3.7363 3.9772 -0.0000 0.0000 -0.9184 -0.2360 -1.1564 1.6497 0.0000 0.0000 -11.3532 8.2182 -9.7152 9.4646 -0.0000 0.0000 -11.2856 -3.5638 -3.5376 -0.5803 -20.1104 -29.9253 -32.5144 2.0525 30.6351 10.2409 -0.0000 12.6324 -1.5448 5.8784 14.7527 32.8623 0.0000 -24.3270 -10.7086 18.8501 32.9056 -33.8721 -1.6730 -27.2290 -4.2521 0.0000 20.9333 0.7848 10.9676 -4.1180 33.1476 -0.0000 26.2537 -0.3463 1.2662 3.2642
 -3.2991 33.1030 -1.2342 8.5105 -0.3796 3.0599 -0.0341 -4.1837 -0.8123 -1.0133 -0.0000 -0.0000 -12.2441 -6.4137 -3.7219 3.9302 0.0000 -0.0000 -0.9191 -0.2511 -1.1580 1.6592 -0.0000 -0.0000 -11.3698 8.2299 -9.7012 9.4651 -0.0000 -0.0000 -11.2859 -3.5522 -3.5351 -0.5897 -20.0987 -29.9296 -32.4839 2.0543 30.6303 10.2476 -0.0000 12.6091 -1.5509 5.9022 14.7511 32.8623 0.0000 -24.3270 -10.6776 18.8667 32.9014 -33.9067 -1.6779 -27.2402 -4.2590 0.0000 20.9484 0.7890 10.9766 -4.1368 33.1476 -0.0000 26.2537 -0.3237 1.2776 3.2518
